#tb 0: 1/25
0,          0,          0,        1,   599040, 0x9b27dc7d
0,          1,          1,        1,   599040, 0x796cdd26
0,          2,          2,        1,   599040, 0xd3c9dca9
0,          3,          3,        1,   599040, 0xf7b2876a
0,          4,          4,        1,   599040, 0x296701c8
0,          5,          5,        1,   599040, 0xf9a80f9a
0,          6,          6,        1,   599040, 0x7cbe9656
0,          7,          7,        1,   599040, 0x17093be8
0,          8,          8,        1,   599040, 0x2a0e196e
0,          9,          9,        1,   599040, 0x3492c809
0,         10,         10,        1,   599040, 0xbc5523f3
0,         11,         11,        1,   599040, 0xf618ff66
0,         12,         12,        1,   599040, 0x07060c9d
0,         13,         13,        1,   599040, 0xd5a8fb5d
0,         14,         14,        1,   599040, 0x780e18b9
0,         15,         15,        1,   599040, 0xff553fbd
0,         16,         16,        1,   599040, 0x715cce2d
0,         17,         17,        1,   599040, 0x8a834c19
0,         18,         18,        1,   599040, 0xbc4a0c21
0,         19,         19,        1,   599040, 0xc85fed31
0,         20,         20,        1,   599040, 0xcbb97b56
0,         21,         21,        1,   599040, 0x518111dd
0,         22,         22,        1,   599040, 0x5a680f48
0,         23,         23,        1,   599040, 0x02956f28
0,         24,         24,        1,   599040, 0x10845ef6
0,         25,         25,        1,   599040, 0x2ad3c6d7
0,         26,         26,        1,   599040, 0xa9f725e9
0,         27,         27,        1,   599040, 0xb835f470
0,         28,         28,        1,   599040, 0x693bf01d
0,         29,         29,        1,   599040, 0x50bf3b77
0,         30,         30,        1,   599040, 0x304873e3
0,         31,         31,        1,   599040, 0x707a6af9
0,         32,         32,        1,   599040, 0x50bf2017
0,         33,         33,        1,   599040, 0x2c583f11
0,         34,         34,        1,   599040, 0xe738080b
0,         35,         35,        1,   599040, 0x549984e6
0,         36,         36,        1,   599040, 0xa22e8a96
0,         37,         37,        1,   599040, 0xc9f222cd
0,         38,         38,        1,   599040, 0x28d944bc
0,         39,         39,        1,   599040, 0x2e366350
0,         40,         40,        1,   599040, 0xbcc2eb12
0,         41,         41,        1,   599040, 0x074d3fdd
0,         42,         42,        1,   599040, 0x0e0bd820
0,         43,         43,        1,   599040, 0xf078af68
0,         44,         44,        1,   599040, 0xaeed7222
0,         45,         45,        1,   599040, 0xb66100cd
0,         46,         46,        1,   599040, 0x848cd1c5
0,         47,         47,        1,   599040, 0xa6bf930c
0,         48,         48,        1,   599040, 0x32501b56
0,         49,         49,        1,   599040, 0x2498d992
0,         50,         50,        1,   599040, 0x03481b78
0,         51,         51,        1,   599040, 0x551d7c11
0,         52,         52,        1,   599040, 0xfbdc629d
0,         53,         53,        1,   599040, 0x1f438ded
0,         54,         54,        1,   599040, 0x4d25ce07
0,         55,         55,        1,   599040, 0x4fe8f8aa
0,         56,         56,        1,   599040, 0x5d65d790
0,         57,         57,        1,   599040, 0xfcba4efb
0,         58,         58,        1,   599040, 0x50b483a3
0,         59,         59,        1,   599040, 0x12fd4b31
0,         60,         60,        1,   599040, 0x71014417
0,         61,         61,        1,   599040, 0xeed88bc4
0,         62,         62,        1,   599040, 0xb2d4710d
0,         63,         63,        1,   599040, 0xbe4dfe69
0,         64,         64,        1,   599040, 0x9b7844b6
0,         65,         65,        1,   599040, 0xe2e691bf
0,         66,         66,        1,   599040, 0xb24200dc
0,         67,         67,        1,   599040, 0xf29cb5bf
0,         68,         68,        1,   599040, 0x90350310
0,         69,         69,        1,   599040, 0xbe1cc3c1
0,         70,         70,        1,   599040, 0xaae58f97
0,         71,         71,        1,   599040, 0x0d5cb388
0,         72,         72,        1,   599040, 0x0fa734e3
0,         73,         73,        1,   599040, 0xaa41543a
0,         74,         74,        1,   599040, 0x3e6e1d4b
0,         75,         75,        1,   599040, 0x6426e543
0,         76,         76,        1,   599040, 0xe65ad058
0,         77,         77,        1,   599040, 0xf7f1744d
0,         78,         78,        1,   599040, 0xa8fa32da
0,         79,         79,        1,   599040, 0xa2c80e49
0,         80,         80,        1,   599040, 0x22b972e9
0,         81,         81,        1,   599040, 0x2462823b
0,         82,         82,        1,   599040, 0xa7fd0432
0,         83,         83,        1,   599040, 0x38d22ea4
0,         84,         84,        1,   599040, 0xb472f4d6
0,         85,         85,        1,   599040, 0x36c107a0
0,         86,         86,        1,   599040, 0x9abb5ce0
0,         87,         87,        1,   599040, 0x74b2861c
0,         88,         88,        1,   599040, 0xba3d04d3
0,         89,         89,        1,   599040, 0x65132373
0,         90,         90,        1,   599040, 0x63585754
0,         91,         91,        1,   599040, 0xa6c0f4d4
0,         92,         92,        1,   599040, 0xc2cf9c33
0,         93,         93,        1,   599040, 0xdf6d16af
0,         94,         94,        1,   599040, 0x94566b11
0,         95,         95,        1,   599040, 0x8070818d
0,         96,         96,        1,   599040, 0x4acc92c1
0,         97,         97,        1,   599040, 0xb520033c
0,         98,         98,        1,   599040, 0xc82e7058
0,         99,         99,        1,   599040, 0xb23367bc
0,        100,        100,        1,   599040, 0x1fa25586
0,        101,        101,        1,   599040, 0x2b2abbb8
0,        102,        102,        1,   599040, 0xb9b74546
0,        103,        103,        1,   599040, 0x4c4a2ef9
0,        104,        104,        1,   599040, 0x5eb54025
0,        105,        105,        1,   599040, 0x1e1cbcc6
0,        106,        106,        1,   599040, 0xc3bf1017
0,        107,        107,        1,   599040, 0xdbda1761
0,        108,        108,        1,   599040, 0x19241b7c
0,        109,        109,        1,   599040, 0x791dda93
0,        110,        110,        1,   599040, 0x444a152f
0,        111,        111,        1,   599040, 0x0b69d08b
0,        112,        112,        1,   599040, 0xd024abae
0,        113,        113,        1,   599040, 0x724e0d78
0,        114,        114,        1,   599040, 0x648f9c09
0,        115,        115,        1,   599040, 0xee114298
0,        116,        116,        1,   599040, 0x92d1e98f
0,        117,        117,        1,   599040, 0xb623cb10
0,        118,        118,        1,   599040, 0xf8e9b414
0,        119,        119,        1,   599040, 0xe47a0981
0,        120,        120,        1,   599040, 0xdc78d28d
0,        121,        121,        1,   599040, 0xd36d9ad5
0,        122,        122,        1,   599040, 0xe7bea48e
0,        123,        123,        1,   599040, 0x0dd39d1d
0,        124,        124,        1,   599040, 0xb66a18ee
0,        125,        125,        1,   599040, 0x6085d265
0,        126,        126,        1,   599040, 0xb9ef646b
0,        127,        127,        1,   599040, 0x544140a4
0,        128,        128,        1,   599040, 0x9c546327
0,        129,        129,        1,   599040, 0xd74d4a8e
0,        130,        130,        1,   599040, 0x98a504e0
0,        131,        131,        1,   599040, 0x88849351
0,        132,        132,        1,   599040, 0xa519f6c7
0,        133,        133,        1,   599040, 0xc548df7f
0,        134,        134,        1,   599040, 0x8e690444
0,        135,        135,        1,   599040, 0x5edbdced
0,        136,        136,        1,   599040, 0xd3e189c2
0,        137,        137,        1,   599040, 0x286d44a2
0,        138,        138,        1,   599040, 0xe946f83e
0,        139,        139,        1,   599040, 0xdc94ae6d
0,        140,        140,        1,   599040, 0x5d4e95dc
0,        141,        141,        1,   599040, 0x2c03280f
0,        142,        142,        1,   599040, 0x368c6b23
0,        143,        143,        1,   599040, 0x2fc5d2ee
0,        144,        144,        1,   599040, 0x85e8f3ec
0,        145,        145,        1,   599040, 0xd1fdcf69
0,        146,        146,        1,   599040, 0xa663cf5a
0,        147,        147,        1,   599040, 0x5d644057
0,        148,        148,        1,   599040, 0xfdd039e0
0,        149,        149,        1,   599040, 0x9cdb6369
0,        150,        150,        1,   599040, 0x3c4ca86b
0,        151,        151,        1,   599040, 0x27ac4d91
0,        152,        152,        1,   599040, 0x3f13a8bb
0,        153,        153,        1,   599040, 0xbcd984c5
0,        154,        154,        1,   599040, 0xa55eb124
0,        155,        155,        1,   599040, 0xb09c4a47
0,        156,        156,        1,   599040, 0x0da7fd48
0,        157,        157,        1,   599040, 0xa01dc374
0,        158,        158,        1,   599040, 0xe428b3b0
0,        159,        159,        1,   599040, 0xff3fcc43
0,        160,        160,        1,   599040, 0xbc5491c1
0,        161,        161,        1,   599040, 0x34e51a66
0,        162,        162,        1,   599040, 0xb63f5acd
0,        163,        163,        1,   599040, 0xe12f417d
0,        164,        164,        1,   599040, 0x789bb191
0,        165,        165,        1,   599040, 0x5fdeaa57
0,        166,        166,        1,   599040, 0x65034250
0,        167,        167,        1,   599040, 0xab577632
0,        168,        168,        1,   599040, 0x1338c7eb
0,        169,        169,        1,   599040, 0x5a84b078
0,        170,        170,        1,   599040, 0x9f3fd6c2
0,        171,        171,        1,   599040, 0x23cd7f3f
0,        172,        172,        1,   599040, 0x43701c5c
0,        173,        173,        1,   599040, 0x72eff5aa
0,        174,        174,        1,   599040, 0x858a7280
0,        175,        175,        1,   599040, 0x5d1da2b1
0,        176,        176,        1,   599040, 0x2b6fae7b
0,        177,        177,        1,   599040, 0x3d96cd3f
0,        178,        178,        1,   599040, 0x5d6d48e5
0,        179,        179,        1,   599040, 0x829023ee
0,        180,        180,        1,   599040, 0xeafa5127
0,        181,        181,        1,   599040, 0x1adf2830
0,        182,        182,        1,   599040, 0x35f07617
0,        183,        183,        1,   599040, 0x7aa691e2
0,        184,        184,        1,   599040, 0xd11b3ed2
0,        185,        185,        1,   599040, 0x69c12b52
0,        186,        186,        1,   599040, 0x34fb8557
0,        187,        187,        1,   599040, 0xd06c84ff
0,        188,        188,        1,   599040, 0x26338170
0,        189,        189,        1,   599040, 0x3d24f1e9
0,        190,        190,        1,   599040, 0x28a99f46
0,        191,        191,        1,   599040, 0x22421eea
0,        192,        192,        1,   599040, 0xc53b57eb
0,        193,        193,        1,   599040, 0x752433b8
0,        194,        194,        1,   599040, 0x6332eaaa
0,        195,        195,        1,   599040, 0x559d273f
0,        196,        196,        1,   599040, 0xe9811056
0,        197,        197,        1,   599040, 0x61acf706
0,        198,        198,        1,   599040, 0x3893c930
0,        199,        199,        1,   599040, 0x5d6d3f58
0,        200,        200,        1,   599040, 0xb645df35
0,        201,        201,        1,   599040, 0x6af7f2eb
0,        202,        202,        1,   599040, 0xeb456cc5
0,        203,        203,        1,   599040, 0x32abac64
0,        204,        204,        1,   599040, 0x1327da04
0,        205,        205,        1,   599040, 0x73ca53b9
0,        206,        206,        1,   599040, 0xe940d23e
0,        207,        207,        1,   599040, 0xc6fdf611
0,        208,        208,        1,   599040, 0xc72e4309
0,        209,        209,        1,   599040, 0xecab46a1
0,        210,        210,        1,   599040, 0xb248b91e
0,        211,        211,        1,   599040, 0xe9aeb62c
0,        212,        212,        1,   599040, 0x5827cf39
0,        213,        213,        1,   599040, 0x763a74d6
0,        214,        214,        1,   599040, 0x232e397c
0,        215,        215,        1,   599040, 0xe2ef8213
0,        216,        216,        1,   599040, 0xddcbe94f
0,        217,        217,        1,   599040, 0xe8a8919a
0,        218,        218,        1,   599040, 0x5860fae0
0,        219,        219,        1,   599040, 0x525b1a95
0,        220,        220,        1,   599040, 0x50e36027
0,        221,        221,        1,   599040, 0xd05ee599
0,        222,        222,        1,   599040, 0xc1e7b87b
0,        223,        223,        1,   599040, 0x2edfa52c
0,        224,        224,        1,   599040, 0xca147244
0,        225,        225,        1,   599040, 0x9e0a77b7
0,        226,        226,        1,   599040, 0x88ac8035
0,        227,        227,        1,   599040, 0xe34c890a
0,        228,        228,        1,   599040, 0xbe4feadd
0,        229,        229,        1,   599040, 0xd5a7503d
0,        230,        230,        1,   599040, 0xae18e82d
0,        231,        231,        1,   599040, 0x66cf3881
0,        232,        232,        1,   599040, 0x9f08a65c
0,        233,        233,        1,   599040, 0xeb3e1a58
0,        234,        234,        1,   599040, 0x2b83004a
0,        235,        235,        1,   599040, 0x65be32c9
0,        236,        236,        1,   599040, 0x231586fa
0,        237,        237,        1,   599040, 0x7e5724fb
0,        238,        238,        1,   599040, 0xfebe47b6
0,        239,        239,        1,   599040, 0xfeeb9a38
0,        240,        240,        1,   599040, 0x44e90683
0,        241,        241,        1,   599040, 0x546d03f4
0,        242,        242,        1,   599040, 0x211a534e
0,        243,        243,        1,   599040, 0x12d2a800
0,        244,        244,        1,   599040, 0xa6022d19
0,        245,        245,        1,   599040, 0x6bedd152
0,        246,        246,        1,   599040, 0x6f7de80b
0,        247,        247,        1,   599040, 0x778f0771
0,        248,        248,        1,   599040, 0xe63e4241
0,        249,        249,        1,   599040, 0xa0298023
0,        250,        250,        1,   599040, 0xc4c5b8b2
0,        251,        251,        1,   599040, 0xcca64f1c
0,        252,        252,        1,   599040, 0xfec4d1a0
0,        253,        253,        1,   599040, 0xcb7c4b80
0,        254,        254,        1,   599040, 0x0795f7b7
0,        255,        255,        1,   599040, 0x5f45706c
0,        256,        256,        1,   599040, 0x927f04d8
0,        257,        257,        1,   599040, 0x4c201f08
0,        258,        258,        1,   599040, 0xdb447b37
0,        259,        259,        1,   599040, 0xae33725e
0,        260,        260,        1,   599040, 0x474281af
0,        261,        261,        1,   599040, 0xe198764e
0,        262,        262,        1,   599040, 0xb226916f
0,        263,        263,        1,   599040, 0x8a7156a5
0,        264,        264,        1,   599040, 0x5fe639ab
0,        265,        265,        1,   599040, 0xaa62b79e
0,        266,        266,        1,   599040, 0x94618e23
0,        267,        267,        1,   599040, 0x47ba12f0
0,        268,        268,        1,   599040, 0xd33c215e
0,        269,        269,        1,   599040, 0x581e0537
0,        270,        270,        1,   599040, 0x19dce924
0,        271,        271,        1,   599040, 0x95329055
0,        272,        272,        1,   599040, 0x6d2eb80f
0,        273,        273,        1,   599040, 0x11d5e940
0,        274,        274,        1,   599040, 0x30aec978
0,        275,        275,        1,   599040, 0xd742df04
0,        276,        276,        1,   599040, 0xef9ef4ae
0,        277,        277,        1,   599040, 0x51d8fb34
0,        278,        278,        1,   599040, 0xbb6e070a
0,        279,        279,        1,   599040, 0x785a9813
0,        280,        280,        1,   599040, 0xb94d8771
0,        281,        281,        1,   599040, 0x8bd2fe53
0,        282,        282,        1,   599040, 0x6b600868
0,        283,        283,        1,   599040, 0x4b1d6a6f
0,        284,        284,        1,   599040, 0x974f6365
0,        285,        285,        1,   599040, 0xebefa21d
0,        286,        286,        1,   599040, 0x8ce62dad
0,        287,        287,        1,   599040, 0x7a6e6e1b
0,        288,        288,        1,   599040, 0x3746d218
0,        289,        289,        1,   599040, 0xc1aa50d9
0,        290,        290,        1,   599040, 0xda60f976
0,        291,        291,        1,   599040, 0x98274aa8
0,        292,        292,        1,   599040, 0xdf09c760
0,        293,        293,        1,   599040, 0xeb485b8f
0,        294,        294,        1,   599040, 0xad76453b
0,        295,        295,        1,   599040, 0x6eaee19a
0,        296,        296,        1,   599040, 0x464e9cc8
0,        297,        297,        1,   599040, 0xccd0bd12
0,        298,        298,        1,   599040, 0xc7345e2b
0,        299,        299,        1,   599040, 0xe51dd0a9
0,        300,        300,        1,   599040, 0x11b9586b
0,        301,        301,        1,   599040, 0xcb2c85b8
0,        302,        302,        1,   599040, 0x024ce62d
0,        303,        303,        1,   599040, 0x8c1da4eb
0,        304,        304,        1,   599040, 0x9924ed3f
0,        305,        305,        1,   599040, 0xc8f89a61
0,        306,        306,        1,   599040, 0x52db38f2
0,        307,        307,        1,   599040, 0xf1baca44
0,        308,        308,        1,   599040, 0x8d1b322e
0,        309,        309,        1,   599040, 0x5e8a990e
0,        310,        310,        1,   599040, 0xfe281b7c
0,        311,        311,        1,   599040, 0x065ced47
0,        312,        312,        1,   599040, 0x962087db
0,        313,        313,        1,   599040, 0x2e932805
0,        314,        314,        1,   599040, 0x9a4b4946
0,        315,        315,        1,   599040, 0x504bea02
0,        316,        316,        1,   599040, 0xff97cf64
0,        317,        317,        1,   599040, 0xcca9a61c
0,        318,        318,        1,   599040, 0x1ab70ff5
0,        319,        319,        1,   599040, 0x99ed2919
0,        320,        320,        1,   599040, 0xa02f40d2
0,        321,        321,        1,   599040, 0x8a1d83c2
0,        322,        322,        1,   599040, 0xaacec6c2
0,        323,        323,        1,   599040, 0x4f6fe261
0,        324,        324,        1,   599040, 0x1dde4745
0,        325,        325,        1,   599040, 0xa17bdf95
0,        326,        326,        1,   599040, 0xcb5b56b3
0,        327,        327,        1,   599040, 0x7088cdd4
0,        328,        328,        1,   599040, 0xca02bafb
0,        329,        329,        1,   599040, 0x3c5ca543
0,        330,        330,        1,   599040, 0x4ab80de3
0,        331,        331,        1,   599040, 0x75edb57b
0,        332,        332,        1,   599040, 0x772ef858
0,        333,        333,        1,   599040, 0xd7fa8d9f
0,        334,        334,        1,   599040, 0xbc515acc
0,        335,        335,        1,   599040, 0xb1b66d54
0,        336,        336,        1,   599040, 0x40290b6a
0,        337,        337,        1,   599040, 0xd1ff952e
0,        338,        338,        1,   599040, 0x5641abf7
0,        339,        339,        1,   599040, 0x3411e0fd
0,        340,        340,        1,   599040, 0xed4abbaf
0,        341,        341,        1,   599040, 0x34d40ea4
0,        342,        342,        1,   599040, 0xa9983db0
0,        343,        343,        1,   599040, 0x58dc8d9a
0,        344,        344,        1,   599040, 0x24a989a2
0,        345,        345,        1,   599040, 0xc9d1dcdd
0,        346,        346,        1,   599040, 0x6df3031f
0,        347,        347,        1,   599040, 0xa67339d9
0,        348,        348,        1,   599040, 0x545b3ed1
0,        349,        349,        1,   599040, 0xb4d98187
0,        350,        350,        1,   599040, 0xdd2f8588
0,        351,        351,        1,   599040, 0x2aee5737
0,        352,        352,        1,   599040, 0xe7c90c87
0,        353,        353,        1,   599040, 0xb547f0bc
0,        354,        354,        1,   599040, 0x69cc594a
0,        355,        355,        1,   599040, 0xa01adf9c
0,        356,        356,        1,   599040, 0x77021bc9
0,        357,        357,        1,   599040, 0x1cd7e74b
0,        358,        358,        1,   599040, 0x4d284292
0,        359,        359,        1,   599040, 0xe57fd832
0,        360,        360,        1,   599040, 0x76992cf7
0,        361,        361,        1,   599040, 0x88156158
0,        362,        362,        1,   599040, 0xc872db18
0,        363,        363,        1,   599040, 0xc0487bf4
0,        364,        364,        1,   599040, 0x9f3aab7b
0,        365,        365,        1,   599040, 0xfddd1c86
0,        366,        366,        1,   599040, 0x2a991cff
0,        367,        367,        1,   599040, 0x97e3623f
0,        368,        368,        1,   599040, 0x69e5900a
0,        369,        369,        1,   599040, 0x7a5167ec
0,        370,        370,        1,   599040, 0x74bf045a
0,        371,        371,        1,   599040, 0x5b2c1554
0,        372,        372,        1,   599040, 0xc7e9c2e1
0,        373,        373,        1,   599040, 0x9d76e364
0,        374,        374,        1,   599040, 0x2c365ed8
0,        375,        375,        1,   599040, 0x3b7bb213
0,        376,        376,        1,   599040, 0x00a34fa9
0,        377,        377,        1,   599040, 0x0a82f6b8
0,        378,        378,        1,   599040, 0x34f8cf6b
0,        379,        379,        1,   599040, 0x283a256f
0,        380,        380,        1,   599040, 0x89dfe63a
0,        381,        381,        1,   599040, 0x757c7bc3
0,        382,        382,        1,   599040, 0xbcbf4f4a
0,        383,        383,        1,   599040, 0x45fe93d3
0,        384,        384,        1,   599040, 0xa93c4724
0,        385,        385,        1,   599040, 0x25862ef7
0,        386,        386,        1,   599040, 0xff94b8eb
0,        387,        387,        1,   599040, 0x9d350c21
0,        388,        388,        1,   599040, 0x90d6cce5
0,        389,        389,        1,   599040, 0x5c3e51c8
0,        390,        390,        1,   599040, 0x8f966096
0,        391,        391,        1,   599040, 0xddc8ad04
0,        392,        392,        1,   599040, 0xb64a170a
0,        393,        393,        1,   599040, 0xfb8fa0c6
0,        394,        394,        1,   599040, 0x99fa48dc
0,        395,        395,        1,   599040, 0xd62e9344
0,        396,        396,        1,   599040, 0x55ff8d51
0,        397,        397,        1,   599040, 0x1e9809bd
0,        398,        398,        1,   599040, 0x00f0122d
0,        399,        399,        1,   599040, 0x5af2911e
0,        400,        400,        1,   599040, 0xbfcd6c1d
0,        401,        401,        1,   599040, 0xd809c652
0,        402,        402,        1,   599040, 0xee36969a
0,        403,        403,        1,   599040, 0x9c0ed842
0,        404,        404,        1,   599040, 0x4e07a2b0
0,        405,        405,        1,   599040, 0xa5b3202b
0,        406,        406,        1,   599040, 0x4c1add0e
0,        407,        407,        1,   599040, 0x489b2fa9
0,        408,        408,        1,   599040, 0xa088c512
0,        409,        409,        1,   599040, 0x4f6121ac
0,        410,        410,        1,   599040, 0x1959f62b
0,        411,        411,        1,   599040, 0x2d51a5c4
0,        412,        412,        1,   599040, 0x95e70f4f
0,        413,        413,        1,   599040, 0x4eab3c11
0,        414,        414,        1,   599040, 0xf2c2b9b5
0,        415,        415,        1,   599040, 0x62f50ffe
0,        416,        416,        1,   599040, 0x2104d2f8
0,        417,        417,        1,   599040, 0x42a8b39f
0,        418,        418,        1,   599040, 0x857f1fe6
0,        419,        419,        1,   599040, 0x6ac5190d
0,        420,        420,        1,   599040, 0x228d7a0b
0,        421,        421,        1,   599040, 0x0042ef94
0,        422,        422,        1,   599040, 0x4a83e001
0,        423,        423,        1,   599040, 0xc43fec08
0,        424,        424,        1,   599040, 0x5e029548
0,        425,        425,        1,   599040, 0xbc89dea9
0,        426,        426,        1,   599040, 0x6c5d88cf
0,        427,        427,        1,   599040, 0x3a5dabfb
0,        428,        428,        1,   599040, 0x876e1e54
0,        429,        429,        1,   599040, 0x55715da8
0,        430,        430,        1,   599040, 0x199c039b
0,        431,        431,        1,   599040, 0x0286f71e
0,        432,        432,        1,   599040, 0xf9a244a1
0,        433,        433,        1,   599040, 0xf5655275
0,        434,        434,        1,   599040, 0xde3dba0c
0,        435,        435,        1,   599040, 0x617f8963
0,        436,        436,        1,   599040, 0x0fe0e661
0,        437,        437,        1,   599040, 0x8ba905ea
0,        438,        438,        1,   599040, 0xb2812b34
0,        439,        439,        1,   599040, 0x32d61c8b
0,        440,        440,        1,   599040, 0xb7603400
0,        441,        441,        1,   599040, 0x232c278f
0,        442,        442,        1,   599040, 0xdf61c27d
0,        443,        443,        1,   599040, 0xa053482f
0,        444,        444,        1,   599040, 0x109724d3
0,        445,        445,        1,   599040, 0x49d36800
0,        446,        446,        1,   599040, 0x4a103bff
0,        447,        447,        1,   599040, 0x7cd3813b
0,        448,        448,        1,   599040, 0xeef677d7
0,        449,        449,        1,   599040, 0xc5ad66c2
0,        450,        450,        1,   599040, 0xa06e472d
0,        451,        451,        1,   599040, 0x53182cc5
0,        452,        452,        1,   599040, 0x9e62bfc0
0,        453,        453,        1,   599040, 0x93515843
0,        454,        454,        1,   599040, 0x5e0778d7
0,        455,        455,        1,   599040, 0x957a6d55
0,        456,        456,        1,   599040, 0x0bc26b3d
0,        457,        457,        1,   599040, 0x5e0bc514
0,        458,        458,        1,   599040, 0x7f717a98
0,        459,        459,        1,   599040, 0x8497968c
0,        460,        460,        1,   599040, 0x8fb527b8
0,        461,        461,        1,   599040, 0x8580e487
0,        462,        462,        1,   599040, 0x59b2d7cc
0,        463,        463,        1,   599040, 0x5fbc38d7
0,        464,        464,        1,   599040, 0xb1ba014e
0,        465,        465,        1,   599040, 0x10481d8f
0,        466,        466,        1,   599040, 0xd42e42e0
0,        467,        467,        1,   599040, 0x14a361c1
0,        468,        468,        1,   599040, 0x58378917
0,        469,        469,        1,   599040, 0xaeb99a82
0,        470,        470,        1,   599040, 0x5666ef55
0,        471,        471,        1,   599040, 0xbd0ce495
0,        472,        472,        1,   599040, 0xf13af36c
0,        473,        473,        1,   599040, 0x55e8b101
0,        474,        474,        1,   599040, 0x4e2966b4
0,        475,        475,        1,   599040, 0xd973e873
0,        476,        476,        1,   599040, 0x72d55685
0,        477,        477,        1,   599040, 0x48eee8c2
0,        478,        478,        1,   599040, 0x61291b38
0,        479,        479,        1,   599040, 0x91f839f8
0,        480,        480,        1,   599040, 0x0a4e9585
0,        481,        481,        1,   599040, 0x02e0f1f0
0,        482,        482,        1,   599040, 0xc104009c
0,        483,        483,        1,   599040, 0x9417127e
0,        484,        484,        1,   599040, 0x4630302e
0,        485,        485,        1,   599040, 0x692141ea
0,        486,        486,        1,   599040, 0x1ebed0bd
0,        487,        487,        1,   599040, 0x362544a8
0,        488,        488,        1,   599040, 0xd9cbef36
0,        489,        489,        1,   599040, 0x54cda997
0,        490,        490,        1,   599040, 0x79463ed1
0,        491,        491,        1,   599040, 0xe95b66eb
0,        492,        492,        1,   599040, 0x5bdaa63e
0,        493,        493,        1,   599040, 0x72ced562
0,        494,        494,        1,   599040, 0xcb2bdc53
0,        495,        495,        1,   599040, 0x4ff80855
0,        496,        496,        1,   599040, 0x68515ba6
0,        497,        497,        1,   599040, 0x56228d2d
0,        498,        498,        1,   599040, 0xb72a68ed
0,        499,        499,        1,   599040, 0x111cc604
